<svg xmlns="http://www.w3.org/2000/svg" viewBox="0 0 150.6 124.06"><defs><style>.cls-1,.cls-4{fill:#fff;}.cls-1,.cls-2,.cls-3,.cls-4{stroke:#1d1d1b;}.cls-1{stroke-linejoin:round;}.cls-2{fill:none;}.cls-2,.cls-3,.cls-4,.cls-5{stroke-miterlimit:10;}.cls-3,.cls-5{fill:#1d1d1b;}.cls-5{stroke:#fff;}</style></defs><g id="Слой_2" data-name="Слой 2"><g id="Слой_2-2" data-name="Слой 2"><path class="cls-1" d="M106.12,110.42a61.57,61.57,0,0,1-81.61-5l0-.29c0-.11,0-.23,0-.37s0-.25,0-.4c.12-1.4.24-2.79.37-4.19q.82-9.5,1.69-19a0,0,0,0,0,0,0h0c.1-1.08.19-2.14.29-3.22h.16l1.62,0h.18A93.73,93.73,0,0,0,39.71,77a95.29,95.29,0,0,0,20.74-5.31,15.23,15.23,0,0,1,0,2.27l0,.48h0a16.78,16.78,0,0,1-2,6.52c-2.1,4.24-2,19.36,7,25,5.57,3.49,14.3,3.2,18-1s1.5-11.69,3-12c1.69-.35,4.17,10,5.93,10h.07c2.26-.32,1.38-18.14,1.32-19.23A174.82,174.82,0,0,0,91.32,62a17.27,17.27,0,0,0,7.18,2h1a7.06,7.06,0,0,1-2,4c-.88.83-1.47.86-1.8,1.53-.76,1.54,1.18,3.62,2.4,5.72.65,1.14,1.14,4.2,2.07,10.28,1.11,7.15,1.66,10.73,1.76,12.59a21.76,21.76,0,0,0,.89,6.33A18.59,18.59,0,0,0,106.12,110.42Z"/><path class="cls-2" d="M85.5,53l-.15,0"/><path class="cls-3" d="M70.5,57c-1,4.63-15.36,15.88-37,17a68.7,68.7,0,0,1-7,0l-2-1c-3.69-1.84-3.83-1.89-4-2-2.6-1.67-1.42-9.74,0-13,5.84-13.46,43.4-9.19,45-9a8,8,0,0,1,2,1,7.34,7.34,0,0,1,3,4A7.09,7.09,0,0,1,70.5,57Z"/><path class="cls-2" d="M19.5,45a1.72,1.72,0,0,1-.07-.21"/><path class="cls-4" d="M27.42,43.84c-2.79.22-5.47.52-8,.94h0C17.25,38.7,15.85,34.28,14.93,31a61.55,61.55,0,0,1-1.43-6c-.14-.85-.4-2.58-1-5-1-4.1-2-7-2-7-1-3-1.6-4.09-1-5a3,3,0,0,1,3-1c2.4.53,2.93,4.19,5,11,.76,2.47,1.44,4.45,2.08,6.18,1.64,4.42,3.05,7.28,4.92,12.82a44.89,44.89,0,0,0,2,5c.14.3.27.57.4.82l.23.47.17.32,0,.06Z"/><path class="cls-2" d="M27.5,44c0-.05-.05-.09-.08-.15"/><path class="cls-5" d="M92.5,103h-.07c-1.08-15-4.08-19.28-6.93-20-3.44-.87-5.49,3.74-10,3-6.81-1.12-9.75-12.89-14-12a2.66,2.66,0,0,0-1,.48l0-.48a15.23,15.23,0,0,0,0-2.27C66.71,68.92,72,64.86,74.5,59a19.2,19.2,0,0,0,1-3,4.24,4.24,0,0,1,1-1A4.28,4.28,0,0,1,78,54.32a35.11,35.11,0,0,1,4.26-.68,23.44,23.44,0,0,0,3-.61,11.78,11.78,0,0,0,1.15,4,11.34,11.34,0,0,0,4,4.49c.26.17.51.32.77.47a174.82,174.82,0,0,1,2.5,21.81C93.88,84.85,94.76,102.67,92.5,103Z"/><path class="cls-2" d="M57.47,44.11h-.1l1.07.07Zm-2.56-.17-1.5-.09-.55,0c-.4,0-.81,0-1.22-.06s-.52,0-.78,0c1.58.07,3.3.17,5.12.28Zm5.54,27.78A95.29,95.29,0,0,1,39.71,77C46.36,76.19,53.94,74.63,60.45,71.72ZM48.2,43.62h-.67l1.06,0Zm-4-.13h-.58l.82,0Zm-4.56-.06H37.88c-.65,0-1.3,0-2,0H35.4c.19,0,.36,0,.53,0,1.3,0,1.82.17,1.94,0l2.81,0Z"/><path class="cls-4" d="M148.5,27c-2.88-3.28-9.21-2.55-14-2-3.65.42-3.21.9-12,3l-2.73.63c-3.92.88-5.65,1.12-10.27,2.37a53.18,53.18,0,0,0-9,3c-1.06.49-2,.92-2.82,1.34l-.67.34A15.56,15.56,0,0,0,92.5,39a34.48,34.48,0,0,1-4,4,11.32,11.32,0,0,1-7,3,20,20,0,0,1-5,0l-2.09-.27-2.48-.29-1.54-.17-1.71-.18-1.87-.19-2-.19-2.14-.19-.85-.07-1.09-.09-.41,0-.69,0-.78-.06-.29,0h-.07l-1.07-.07h-.09L56,44c-1.82-.11-3.54-.21-5.12-.28l-2.27-.1-1.06,0h-.24l-.62,0-1.23,0h-1l-.82,0h-.55l-.82,0H40.68l-2.81,0c-.12.2-.64,0-1.94,0-.17,0-.34,0-.53,0l-1.38,0-1.38,0-.74,0-1.55.07-.81,0c-.7,0-1.43.07-2.12.12-2.79.22-5.47.52-8,.94h0A38.78,38.78,0,0,0,8.15,48.12,12,12,0,0,0,3.5,52a18.28,18.28,0,0,0-3,10c.31,6.08,4.57,11.19,7.35,12.63A2.49,2.49,0,0,0,9.5,75a2.8,2.8,0,0,1,2,0,2.39,2.39,0,0,1,1,1,10.45,10.45,0,0,0-3.13,4.46c.5,1.6,1.06,3.18,1.7,4.72A8.84,8.84,0,0,0,18.5,84c.55-.4.6-.58,4-4l2-2c.67,0,1.5,0,2.47,0h.16l1.62,0h.18c2.93-.11,6.68-.34,10.78-.86a95.29,95.29,0,0,0,20.74-5.31C66.71,68.92,72,64.86,74.5,59a19.2,19.2,0,0,0,1-3,4.24,4.24,0,0,1,1-1A4.28,4.28,0,0,1,78,54.32a35.11,35.11,0,0,1,4.26-.68,23.44,23.44,0,0,0,3-.61,11.78,11.78,0,0,0,1.15,4,11.34,11.34,0,0,0,4,4.49c.26.17.51.32.77.47a17.27,17.27,0,0,0,7.18,2h1c4.24-.29,18-1.41,30-6.49,7.71-3.26,14.72-8.16,18-15.51C148.17,40.51,152.32,31.33,148.5,27Zm-78,30c-1,4.63-15.36,15.88-37,17a68.7,68.7,0,0,1-7,0l-2-1c-3.69-1.84-3.83-1.89-4-2-2.6-1.67-1.42-9.74,0-13,5.84-13.46,43.4-9.19,45-9a8,8,0,0,1,2,1,7.34,7.34,0,0,1,3,4A7.09,7.09,0,0,1,70.5,57Zm66-11a20.91,20.91,0,0,1-7.42,7.76C118.23,60.39,101.23,60.07,98.5,60a14,14,0,0,1-1.58-.76L96.5,59c-.49-.29-6.07-4.06-6-8,0-2.42,2.21-4.07,5.54-6.53,3.06-2.26,5.66-3.54,13-6.69,6.54-2.8,2.25-.83,13.06-5.22,3.15-1.28,6.68-2.73,11.38-2.56,2,.07,3.15.13,4.16,1C140.85,33.59,139.18,41.18,136.5,46Z"/><path class="cls-4" d="M12.5,76a10.45,10.45,0,0,0-3.13,4.46,60.08,60.08,0,0,1-1.52-5.83A2.49,2.49,0,0,0,9.5,75a2.8,2.8,0,0,1,2,0A2.39,2.39,0,0,1,12.5,76Z"/><path class="cls-2" d="M70.5,57c-1,4.63-15.36,15.88-37,17a68.7,68.7,0,0,1-7,0l-2-1c-3.69-1.84-3.83-1.89-4-2-2.6-1.67-1.42-9.74,0-13,5.84-13.46,43.4-9.19,45-9a8,8,0,0,1,2,1,7.34,7.34,0,0,1,3,4A7.09,7.09,0,0,1,70.5,57Z"/><path class="cls-3" d="M136.5,46a20.91,20.91,0,0,1-7.42,7.76C118.23,60.39,101.23,60.07,98.5,60a14,14,0,0,1-1.58-.76L96.5,59c-.49-.29-6.07-4.06-6-8,0-2.42,2.21-4.07,5.54-6.53,3.06-2.26,5.66-3.54,13-6.69,6.54-2.8,2.25-.83,13.06-5.22,3.15-1.28,6.68-2.73,11.38-2.56,2,.07,3.15.13,4.16,1C140.85,33.59,139.18,41.18,136.5,46Z"/><path class="cls-4" d="M19.42,44.78A38.78,38.78,0,0,0,8.15,48.12,60.74,60.74,0,0,1,14.93,31C15.85,34.28,17.25,38.7,19.42,44.78Z"/><path class="cls-4" d="M97,35.67A15.56,15.56,0,0,0,92.5,39a34.48,34.48,0,0,1-4,4,11.32,11.32,0,0,1-7,3,20,20,0,0,1-5,0l-2.09-.27-2.48-.29-1.54-.17-1.71-.18-1.87-.19-2-.19-2.14-.19-.85-.07a162.73,162.73,0,0,0-19.53-1H40.68l-2.81,0-1.94,0h0A42.5,42.5,0,0,1,42.5,30C45.21,26.3,54.21,14,68.5,14a33.15,33.15,0,0,1,21,9l.34.34.33.33.1.1.52.55q.3.32.57.63l.37.42c.13.14.24.28.35.41.44.53.8,1,1,1.32l.28.37.09.12A27.84,27.84,0,0,1,95,30a15.81,15.81,0,0,1,1.34,3A15.46,15.46,0,0,1,97,35.67Z"/><path class="cls-2" d="M54.91,43.94,56,44c-1.82-.11-3.54-.21-5.12-.28l-2.27-.1-1.06,0h-.16l.66,0h.17c1.16,0,2.31.09,3.44.15.41,0,.82,0,1.22.06Z"/><path class="cls-2" d="M57.47,44.11l1,.07-1.07-.07h.1Z"/><path class="cls-2" d="M58.8,44.21l.86.06h-.08Z"/><path class="cls-4" d="M119.77,28.62c-3.92.88-5.65,1.12-10.27,2.37a53.18,53.18,0,0,0-9,3c-1.06.49-2,.92-2.82,1.34l-.67.34A15.46,15.46,0,0,0,96.38,33,15.81,15.81,0,0,0,95,30a27.84,27.84,0,0,0-1.54-2.38l-.09-.12-.28-.37q-.43-.6-1-1.32c-.11-.13-.22-.27-.35-.41l-.37-.42q-.27-.32-.57-.63c-.16-.18-.34-.37-.52-.55l-.1-.1-.33-.33c-.1-.11-.22-.23-.34-.34a33.15,33.15,0,0,0-21-9c-14.29,0-23.29,12.31-26,16a42.5,42.5,0,0,0-6.57,13.49H35.4l-1.38,0-1.38,0-.74,0-1.55.07-.81,0c-.7,0-1.43.07-2.12.12l-.09-.18,0-.06-.17-.32-.23-.47c-.13-.25-.26-.52-.4-.82a44.89,44.89,0,0,1-2-5c-1.87-5.54-3.28-8.4-4.92-12.82a61.55,61.55,0,0,1,100.19,4.45Z"/><path class="cls-2" d="M90.17,23.66,89.5,23"/><path class="cls-2" d="M90.79,24.31l-.52-.55"/><path class="cls-2" d="M37.88,43.44s0,0,0,0"/><path class="cls-4" d="M129.63,62a61.43,61.43,0,0,1-22.51,47.58l-1,.81a18.59,18.59,0,0,1-3.3-6,21.76,21.76,0,0,1-.89-6.33c-.1-1.86-.65-5.44-1.76-12.59-.93-6.08-1.42-9.14-2.07-10.28-1.22-2.1-3.16-4.18-2.4-5.72.33-.67.92-.7,1.8-1.53a7.06,7.06,0,0,0,2-4c4.24-.29,18-1.41,30-6.49C129.57,59,129.63,60.51,129.63,62Z"/><path class="cls-4" d="M26.68,81.17v0q-.86,9.51-1.69,19c-.13,1.4-.25,2.79-.37,4.19,0,.15,0,.28,0,.4s0,.26,0,.37l0,.29a61.55,61.55,0,0,1-13.44-20.3A8.84,8.84,0,0,0,18.5,84c.55-.4.6-.58,4-4l2-2a4.22,4.22,0,0,1,2,1A5,5,0,0,1,26.68,81.17Z"/><path class="cls-2" d="M26.68,81.21c-.1,5.53-1.66,19.69-2.1,23.6Q25.62,93,26.68,81.21Z"/><path class="cls-5" d="M92.43,103c-1.76,0-4.24-10.35-5.93-10-1.5.31.78,7.72-3,12s-12.43,4.49-18,1c-9-5.64-9.1-20.76-7-25a16.78,16.78,0,0,0,2-6.52h0a2.66,2.66,0,0,1,1-.48c4.25-.89,7.19,10.88,14,12,4.51.74,6.56-3.87,10-3C88.35,83.71,91.35,88,92.43,103Z"/></g></g></svg>